<svg xmlns="http://www.w3.org/2000/svg" xmlns:xlink="http://www.w3.org/1999/xlink" viewBox="0 0 341.6 333.79"><defs><style>.cls-1,.cls-2,.cls-3,.cls-4,.cls-5,.cls-6,.cls-7,.cls-8,.cls-9{fill-rule:evenodd;}.cls-1{fill:url(#linear-gradient);}.cls-2{fill:url(#linear-gradient-2);}.cls-3{fill:url(#linear-gradient-3);}.cls-4{fill:url(#linear-gradient-4);}.cls-5{fill:url(#linear-gradient-5);}.cls-6{fill:url(#linear-gradient-6);}.cls-7{fill:url(#linear-gradient-7);}.cls-8{fill:url(#linear-gradient-8);}.cls-9{fill:url(#linear-gradient-9);}</style><linearGradient id="linear-gradient" x1="5.72" y1="358.53" x2="294.13" y2="30.05" gradientUnits="userSpaceOnUse"><stop offset="0" stop-color="#ec3a09"/><stop offset="0.03" stop-color="#ec3a09"/><stop offset="1" stop-color="#c53007"/></linearGradient><linearGradient id="linear-gradient-2" x1="9.54" y1="371.94" x2="359.76" y2="239.18" gradientUnits="userSpaceOnUse"><stop offset="0" stop-color="#ec3a09"/><stop offset="0" stop-color="#ec3a09"/><stop offset="1" stop-color="#c53007"/></linearGradient><linearGradient id="linear-gradient-3" x1="-120.67" y1="306.55" x2="258.16" y2="138.31" gradientUnits="userSpaceOnUse"><stop offset="0" stop-color="#ec3a09"/><stop offset="1" stop-color="#fa9275"/></linearGradient><linearGradient id="linear-gradient-4" x1="14.97" y1="363.28" x2="289.65" y2="188.17" xlink:href="#linear-gradient-2"/><linearGradient id="linear-gradient-5" x1="-32.43" y1="384.3" x2="317.8" y2="251.53" gradientUnits="userSpaceOnUse"><stop offset="0" stop-color="#b12b06"/><stop offset="0.49" stop-color="#b12b06"/><stop offset="1" stop-color="#b12b06"/></linearGradient><linearGradient id="linear-gradient-6" x1="-29.97" y1="383.35" x2="258.44" y2="54.88" xlink:href="#linear-gradient-5"/><linearGradient id="linear-gradient-7" x1="-89.55" y1="292.73" x2="289.27" y2="124.49" gradientUnits="userSpaceOnUse"><stop offset="0" stop-color="#c53007"/><stop offset="1" stop-color="#fa9275"/></linearGradient><linearGradient id="linear-gradient-8" x1="-55.65" y1="369.07" x2="323.18" y2="200.83" gradientUnits="userSpaceOnUse"><stop offset="0" stop-color="#ec3a09"/><stop offset="1" stop-color="#f9734e"/></linearGradient><linearGradient id="linear-gradient-9" x1="-154.46" y1="239.89" x2="224.36" y2="71.65" gradientUnits="userSpaceOnUse"><stop offset="0" stop-color="#f75426"/><stop offset="0.82" stop-color="#f9734e"/></linearGradient></defs><g id="Layer_2" data-name="Layer 2"><g id="Layer_1-2" data-name="Layer 1"><path class="cls-1" d="M0,311C115.45,272.72,216.56,206.56,259.94,140.6c13-19.67,19.93-39.44,21.5-57.65,1.67-40.8-28.86-55.48-66.16-37.87C245.71,101.25,108.87,250,0,311Z"/><path class="cls-2" d="M298.92,221.63C282.43,273.3,181.8,319.59,47,329.77c54.88,4.7,162.86,11.25,231.67-19.57a120.57,120.57,0,0,0,28.57-17.61c29-25.46,21.6-57-8.34-71Z"/><path class="cls-3" d="M65,219.47c61.06-3,189.65-29.35,237.65,4.51,22.88,16.14,25.33,49.82,4.62,68.61,45.25-37.78,49-101.5-8.15-138.78-43.19-28.19-110.24-29.55-157.06-25.54-10.9.87-13.35-5.58-7.85-14.88C148.92,88.73,186.91,52.61,221.66,43,248,35.88,282.32,49,281.44,83c4.71-53.72-36.52-94.34-106.61-80C105.92,17,41.62,87.16,19.05,146,2.85,188.26,12.27,222.11,65,219.47Z"/><path class="cls-4" d="M187.6,229.46c-52.23,38.36-112.89,68.21-173.85,89.35,63.21,0,143.81-12,205.26-41.2,61.84-29.36,19.34-85.54-31.41-48.15Z"/><path class="cls-5" d="M287.14,243.06c23.95,2.94,35.34,31.51,20.12,49.53C328,273.8,325.52,240.12,302.64,224c-1.17-.78-2.45-1.67-3.72-2.35a70.62,70.62,0,0,1-11.78,21.43Z"/><path class="cls-6" d="M218.81,73.26c18.36-18.58,63.91-16.73,61.95,15.17.29-1.85.49-3.71.68-5.48C282.32,49,248,35.88,221.66,43c-2.16.59-4.22,1.27-6.38,2,4.22,7.73,5.2,17.33,3.53,28.18Z"/><path class="cls-7" d="M118.88,172.6c-39,3.62-52.42-14.68-35.83-50.21C101.8,82.27,158.64,30,209.78,16.6c19.83-5.08,43.88-4.4,56.45,11C248.66,5.55,217-5.72,174.83,2.9,105.92,17,41.62,87.16,19.05,146,2.85,188.26,12.27,222.11,65,219.47c61.06-3,189.65-29.35,237.65,4.51,22.88,16.14,25.33,49.82,4.62,68.61,15.41-12.93,26-28.78,31-45.62,6.09-32.68-10.11-55.19-39.85-67.72-51.54-21.62-137-10.66-179.55-6.65Z"/><path class="cls-8" d="M96.69,216.74c66.27-6.86,165.21-21.44,206,7.24,22.88,16.14,25.33,49.82,4.62,68.61,2.16-1.77,4.22-3.53,6.09-5.39,19.33-20.45,15.9-51.77-7.46-68.22-47.12-32.09-149.41-11.25-209.2-2.24Z"/><path class="cls-9" d="M134.2,113.39C148.92,88.73,186.91,52.61,221.66,43,248,35.88,282.32,49,281.44,83c.3-3.13.39-6.06.39-9.09-2.06-31.13-34.16-43.66-61.64-36.12-33.48,9.2-72.94,49.62-86,75.65Z"/></g></g></svg>