<svg width="60" height="60" viewBox="0 0 60 60" fill="none" xmlns="http://www.w3.org/2000/svg">
<path d="M25.3738 25.2929C24.9832 24.9024 24.3501 24.9024 23.9596 25.2929C23.569 25.6834 23.569 26.3166 23.9596 26.7071L25.3738 25.2929ZM31.3333 32.6667H32.3333C32.3333 32.4015 32.228 32.1471 32.0404 31.9596L31.3333 32.6667ZM31.3333 42V43C31.8856 43 32.3333 42.5523 32.3333 42H31.3333ZM24.6667 42H23.6667C23.6667 42.5523 24.1144 43 24.6667 43V42ZM25.6667 36.6667C25.6667 36.1144 25.219 35.6667 24.6667 35.6667C24.1144 35.6667 23.6667 36.1144 23.6667 36.6667H25.6667ZM24.6667 43C25.219 43 25.6667 42.5523 25.6667 42C25.6667 41.4477 25.219 41 24.6667 41V43ZM18 42H17C17 42.5523 17.4477 43 18 43V42ZM18 32.6667L17.2929 31.9596C17.1054 32.1471 17 32.4015 17 32.6667H18ZM25.3738 26.7071C25.7643 26.3166 25.7643 25.6834 25.3738 25.2929C24.9832 24.9024 24.3501 24.9024 23.9596 25.2929L25.3738 26.7071ZM25 27.3333C25 27.8856 25.4477 28.3333 26 28.3333C26.5523 28.3333 27 27.8856 27 27.3333H25ZM42 42V43C42.5523 43 43 42.5523 43 42H42ZM31.3333 41C30.781 41 30.3333 41.4477 30.3333 42C30.3333 42.5523 30.781 43 31.3333 43V41ZM23.9596 26.7071L30.6262 33.3738L32.0404 31.9596L25.3738 25.2929L23.9596 26.7071ZM30.3333 32.6667V42H32.3333V32.6667H30.3333ZM31.3333 41H24.6667V43H31.3333V41ZM25.6667 42V36.6667H23.6667V42H25.6667ZM24.6667 41H18V43H24.6667V41ZM19 42V32.6667H17V42H19ZM18.7071 33.3738L25.3738 26.7071L23.9596 25.2929L17.2929 31.9596L18.7071 33.3738ZM27 27.3333V19.3333H25V27.3333H27ZM27 19.3333C27 19.1492 27.1492 19 27.3333 19V17C26.0447 17 25 18.0447 25 19.3333H27ZM27.3333 19H40.6667V17H27.3333V19ZM40.6667 19C40.8508 19 41 19.1492 41 19.3333H43C43 18.0447 41.9553 17 40.6667 17V19ZM41 19.3333V42H43V19.3333H41ZM42 41H31.3333V43H42V41Z" fill="black"/>
<path d="M31.3334 23.3333V23.3467" stroke="black" stroke-width="2" stroke-linecap="round" stroke-linejoin="round"/>
<path d="M36.6667 23.3333V23.3467" stroke="black" stroke-width="2" stroke-linecap="round" stroke-linejoin="round"/>
<path d="M36.6667 28.6667V28.68" stroke="black" stroke-width="2" stroke-linecap="round" stroke-linejoin="round"/>
<path d="M36.6667 34V34.0133" stroke="black" stroke-width="2" stroke-linecap="round" stroke-linejoin="round"/>
</svg>
