<svg width="60" height="60" viewBox="0 0 60 60" fill="none" xmlns="http://www.w3.org/2000/svg">
<rect x="19.3333" y="19.3333" width="8" height="8" rx="1" stroke="black" stroke-width="2" stroke-linecap="round" stroke-linejoin="round"/>
<rect x="32.6667" y="19.3333" width="8" height="8" rx="1" stroke="black" stroke-width="2" stroke-linecap="round" stroke-linejoin="round"/>
<rect x="19.3333" y="32.6667" width="8" height="8" rx="1" stroke="black" stroke-width="2" stroke-linecap="round" stroke-linejoin="round"/>
<path d="M32.6667 35.6667C32.1144 35.6667 31.6667 36.1144 31.6667 36.6667C31.6667 37.2189 32.1144 37.6667 32.6667 37.6667V35.6667ZM40.6667 37.6667C41.219 37.6667 41.6667 37.2189 41.6667 36.6667C41.6667 36.1144 41.219 35.6667 40.6667 35.6667V37.6667ZM37.6667 32.6667C37.6667 32.1144 37.219 31.6667 36.6667 31.6667C36.1144 31.6667 35.6667 32.1144 35.6667 32.6667H37.6667ZM35.6667 40.6667C35.6667 41.2189 36.1144 41.6667 36.6667 41.6667C37.219 41.6667 37.6667 41.2189 37.6667 40.6667H35.6667ZM32.6667 37.6667H40.6667V35.6667H32.6667V37.6667ZM35.6667 32.6667V40.6667H37.6667V32.6667H35.6667Z" fill="black"/>
</svg>
