<svg width="60" height="60" viewBox="0 0 60 60" fill="none" xmlns="http://www.w3.org/2000/svg">
<g clip-path="url(#clip0_302_15476)">
<path d="M40.6666 35.3333L35.3333 40.6667" stroke="black" stroke-width="2" stroke-linecap="round" stroke-linejoin="round"/>
<path d="M23.3333 30L30 36.6667L28 38.6667C27.5649 39.1161 27.0447 39.4745 26.4697 39.721C25.8947 39.9674 25.2764 40.0969 24.6508 40.102C24.0253 40.1071 23.405 39.9876 22.826 39.7505C22.2471 39.5135 21.7211 39.1636 21.2788 38.7212C20.8364 38.2789 20.4865 37.7529 20.2495 37.174C20.0124 36.5951 19.893 35.9747 19.898 35.3492C19.9031 34.7236 20.0326 34.1053 20.2791 33.5303C20.5255 32.9553 20.8839 32.4351 21.3333 32L23.3333 30Z" stroke="black" stroke-width="2" stroke-linecap="round" stroke-linejoin="round"/>
<path d="M36.6667 30L30 23.3333L32 21.3333C32.4351 20.8839 32.9553 20.5255 33.5303 20.279C34.1053 20.0326 34.7236 19.9031 35.3492 19.898C35.9747 19.8929 36.5951 20.0124 37.174 20.2495C37.7529 20.4865 38.2789 20.8364 38.7212 21.2788C39.1636 21.7211 39.5135 22.2471 39.7505 22.826C39.9876 23.4049 40.1071 24.0253 40.102 24.6508C40.0969 25.2764 39.9674 25.8947 39.721 26.4697C39.4745 27.0447 39.1161 27.5649 38.6667 28L36.6667 30Z" stroke="black" stroke-width="2" stroke-linecap="round" stroke-linejoin="round"/>
<path d="M18 42L21.3333 38.6667" stroke="black" stroke-width="2" stroke-linecap="round" stroke-linejoin="round"/>
<path d="M38.6667 21.3333L42 18" stroke="black" stroke-width="2" stroke-linecap="round" stroke-linejoin="round"/>
<path d="M27.3334 28.6667L24.6667 31.3333" stroke="black" stroke-width="2" stroke-linecap="round" stroke-linejoin="round"/>
<path d="M31.3334 32.6667L28.6667 35.3333" stroke="black" stroke-width="2" stroke-linecap="round" stroke-linejoin="round"/>
<path d="M35.3333 35.3333L40.6666 40.6667" stroke="black" stroke-width="2" stroke-linecap="round" stroke-linejoin="round"/>
</g>
<defs>
<clipPath id="clip0_302_15476">
<rect width="32" height="32" fill="white" transform="translate(14 14)"/>
</clipPath>
</defs>
</svg>
