<svg width="60" height="60" viewBox="0 0 60 60" fill="none" xmlns="http://www.w3.org/2000/svg">
<path d="M35.6666 24.6667C35.6666 25.219 36.1144 25.6667 36.6666 25.6667C37.2189 25.6667 37.6666 25.219 37.6666 24.6667H35.6666ZM38.3333 30C38.3333 30.5523 38.781 31 39.3333 31C39.8856 31 40.3333 30.5523 40.3333 30H38.3333ZM40.3333 35.3333C40.3333 34.7811 39.8856 34.3333 39.3333 34.3333C38.781 34.3333 38.3333 34.7811 38.3333 35.3333H40.3333ZM20.3333 22C20.3333 21.4477 19.8856 21 19.3333 21C18.781 21 18.3333 21.4477 18.3333 22H20.3333ZM37.6666 24.6667V20.6667H35.6666V24.6667H37.6666ZM37.6666 20.6667C37.6666 19.378 36.622 18.3333 35.3333 18.3333V20.3333C35.5174 20.3333 35.6666 20.4826 35.6666 20.6667H37.6666ZM35.3333 18.3333H22V20.3333H35.3333V18.3333ZM22 18.3333C19.9749 18.3333 18.3333 19.975 18.3333 22H20.3333C20.3333 21.0795 21.0795 20.3333 22 20.3333V18.3333ZM18.3333 22C18.3333 24.0251 19.9749 25.6667 22 25.6667V23.6667C21.0795 23.6667 20.3333 22.9205 20.3333 22H18.3333ZM22 25.6667H38V23.6667H22V25.6667ZM38 25.6667C38.1841 25.6667 38.3333 25.8159 38.3333 26H40.3333C40.3333 24.7113 39.2886 23.6667 38 23.6667V25.6667ZM38.3333 26V30H40.3333V26H38.3333ZM38.3333 35.3333V39.3333H40.3333V35.3333H38.3333ZM38.3333 39.3333C38.3333 39.5174 38.1841 39.6667 38 39.6667V41.6667C39.2886 41.6667 40.3333 40.622 40.3333 39.3333H38.3333ZM38 39.6667H22V41.6667H38V39.6667ZM22 39.6667C21.0795 39.6667 20.3333 38.9205 20.3333 38H18.3333C18.3333 40.0251 19.9749 41.6667 22 41.6667V39.6667ZM20.3333 38V22H18.3333V38H20.3333Z" fill="black"/>
<path d="M40.6667 30V35.3333H35.3334C33.8606 35.3333 32.6667 34.1394 32.6667 32.6667C32.6667 31.1939 33.8606 30 35.3334 30H40.6667" stroke="black" stroke-width="2" stroke-linecap="round" stroke-linejoin="round"/>
</svg>
